<svg version="1" xmlns="http://www.w3.org/2000/svg" width="1365.333" height="1365.333" viewBox="0 0 1024.000000 1024.000000"><path d="M313.8 270.5c-.2.1-3.4.6-7.3.9-12 1.1-30.3 4.3-38 6.6-13.8 4.1-24.2 7.4-25 7.9-.5.4-3.2 1.6-6 2.6-5.5 2-22.2 10.1-29.4 14.3-4.6 2.6-21.9 14.2-24.3 16.1-.7.6-4.2 3.4-7.8 6.3-7.4 5.9-25.4 23.7-32 31.6-5.8 7-18 23.9-18 25.1 0 .5-.4 1.1-.8 1.3-2.8 1.1-18.6 33.4-23.5 47.8-6 18.1-6.7 20.7-11.3 44-1.4 7.3-1.6 57.9-.3 68.4.7 5.5 1.3 10.3 1.4 10.6.1.3.5 2 .9 3.8.4 1.9.9 4.3 1.1 5.5.2 1.2 1.3 5.8 2.5 10.2 1.2 4.4 2.3 8.7 2.5 9.5 1.7 7.4 14.5 36.7 21.3 48.5 4.7 8.2 12.9 20.3 19.8 29.1 8.3 10.6 26.4 29.2 35.4 36.5 3 2.4 5.7 4.7 6 5 .3.4 6.2 4.5 13.2 9.2 23.4 15.7 47.7 26.6 76.3 34.3 6.7 1.8 29.8 5.7 34.7 5.8 1.4.1 2.4.4 2.1.8-.2.5 9.3.8 21.1.8 13.2 0 21.7-.4 22.1-1 .3-.6 1.2-1 1.8-1 .7 0 .6.4-.3 1-.9.6-1 1-.3 1 .6 0 1.4-.4 1.7-.9.3-.4 3.2-1.1 6.5-1.4 3.3-.4 9.3-1.3 13.3-2.1 4-.9 8.4-1.7 9.8-2 1.4-.3 5-1.2 8-2.1 3-.8 7-1.8 8.8-2.1 1.8-.4 3.5-1.1 3.8-1.5.3-.5 1.2-.9 2.1-.9 2.6 0 24.3-9 34.3-14.3 13.4-7 20.4-11.4 31.4-19.6 13-9.6 14.2-10.7 28.6-25.1 13.7-13.7 18-18.5 18-19.9 0-.5.4-1.1.8-1.3 1.3-.5 10.3-13.2 16-22.5 11.7-19 23.7-46.7 26.6-61.4.2-.8.6-2.1.9-2.9.5-1.5 1.8-6.3 2.3-9 .2-.8 1-5.1 1.9-9.5.8-4.4 1.7-10.3 2-13 .3-2.8.7-7.9 1.1-11.5.8-8.6.8-31.1 0-38-.4-3-.8-7.5-1-10-.3-2.5-.7-5.6-1-7-.3-1.4-.8-3.6-1-5-1.2-7.2-2-11.2-3.8-18-2.5-9.8-5.6-20-6.8-22.5-.5-1.1-2.1-5.2-3.6-9-7.4-19.3-22.2-44.2-36.9-62.2-3.8-4.6-26.6-27.6-31.6-31.9-1.3-1.1-4.2-3.3-6.4-5-2.2-1.6-4.6-3.4-5.3-4.1-.7-.7-2.6-2-4.2-3-1.7-.9-3-2.1-3-2.5 0-.4-.5-.8-1.1-.8-.6 0-2.9-1.3-5.2-2.9-9.5-6.5-31.8-17.8-43.7-22-1.9-.7-4.4-1.7-5.5-2.2-2.4-1.1-19-5.9-22.5-6.5-1.4-.3-3.3-.7-4.2-1-1.8-.5-4.6-1.1-9.3-1.9-1.6-.3-3.7-.8-4.5-1-4.5-1.3-22.6-2.8-37.7-3-9.5-.1-17.3-.2-17.5 0zm31.5 29.2c.5.3 3.7.7 7.1.9 3.3.2 7 .6 8.2.9 1.2.2 3.9.7 6 1 2.1.3 5 .8 6.4 1.2 1.4.3 3 .7 3.5.9.6.1 2.5.5 4.4.8 1.9.4 4.1 1 5 1.5.9.4 3 1.1 4.8 1.4 5.4 1 24.3 8.7 35.3 14.4 20.9 10.8 35.8 21.9 54.1 40.2 29.8 30 49.9 67.9 57.4 108.6 1 4.9 1.8 9.7 2 10.6 2.1 11 2.2 47.8.1 57.9-.1.8-.6 3.7-1.1 6.5-1.6 10.1-7.5 32.1-10.4 39-.5 1.1-1.5 3.6-2.2 5.5-4.9 13.8-23.5 45.4-31.6 53.8-1 1-2.8 3.1-4 4.7-9 11.6-27.3 27.7-44.5 39.1-8.7 5.9-34.8 20-34.8 18.9 0-.3-2.4.6-5.2 1.8-2.9 1.3-5.5 2.4-5.8 2.5-.3 0-1.2.3-2 .6-11.4 3.8-24.4 7.2-31.2 8-2.1.2-4.1.7-4.5.9-4.5 2.7-56.4 2.7-65.6 0-1.1-.3-2.9-.6-4-.8-4.5-.5-10.4-1.7-14.9-3-2.7-.8-4.8-1.1-4.8-.8 0 .3-.6.1-1.2-.4-.7-.6-3.5-1.6-6.3-2.3-2.7-.7-5.6-1.8-6.4-2.4-.8-.6-1.6-1-1.8-.8-.5.5-9.6-3.1-18.5-7.2-14.9-6.9-35-19.8-46.8-30.1-12.2-10.6-35-35.6-35-38.4 0-.5-.4-1.1-.9-1.3-2.5-.9-20.4-32.4-22.6-39.8-.4-1.4-1.6-4.3-2.6-6.5-1.7-3.8-3.5-9.5-7.2-22.5-2.1-7.4-4-17.5-5.3-28.5-.3-2.2-.7-5.1-1-6.5-.5-2.9-.5-31.1 0-35.5.2-1.7.7-5.9 1-9.5.4-3.6.9-7.2 1.1-8 .2-.8.7-3.1 1-5 .3-1.9 1-5.3 1.6-7.5.5-2.2 1.2-5.1 1.5-6.5.8-4.1 8.1-25.1 10.5-30.5 1.3-2.8 2.4-5.2 2.4-5.5 0-.3.7-1.6 1.5-3s2.4-4.6 3.6-7.1c3.1-6.7 14.4-23.6 22-33.2 22.4-28.1 57.6-53.9 88.4-64.8 3-1.1 6.3-2.4 7.2-3 1-.5 2.7-.9 3.7-.9 1.1 0 2.2-.4 2.5-.9.3-.5 2.3-1.2 4.3-1.6 2.1-.5 4.3-1 4.8-1.1 2.2-.7 9.2-2.3 12-2.8 1.7-.3 4.1-.8 5.5-1.1 5.1-1.1 7.7-1.4 15-2 4.1-.4 7.7-.8 7.9-1 .6-.6 29.4-.4 30.4.2z"/><path d="M476.8 403.8c-3.5 7.2-8.2 18-9.3 21.2-.1.3-.4 1.2-.8 2-1.2 3-4.6 13.6-5.8 18-1.4 5.2-1.2 4.4-2.7 9.5-.6 2.2-1.3 5.6-1.6 7.6-.3 2-.8 4.2-1 5-.8 2.3-2.1 11.6-3.2 22.9-.8 8.9-.9 31.7 0 41.9.6 7.2 2.2 18.6 4.3 29.6.8 4.5 6.3 24.4 8 29 3.1 8.3 8.9 22.2 11.9 28.4l3.1 6.4 9-11.9c4.9-6.5 9.3-12.5 9.7-13.1.4-.7-.9-5.4-3-10.5-3.3-8.5-5.7-15.4-5.4-16 .1-.2-.4-1.7-1.1-3.3-1.5-3.8-4.2-15.1-5.3-22.5-.3-1.9-.8-4.6-1-6-1.9-10.9-2.7-38.9-1.4-50 3.1-25.8 8.2-45.8 16.3-63.6l3.2-7.1-4.1-4.4c-2.3-2.5-5-5.6-6.1-7.1-2.7-3.4-9-10.4-10.1-11.1-.5-.3-2.1 2-3.6 5.1zM675.7 270.6c-.1.2-3.2.6-6.7.9-7.5.7-12.4 1.3-15.4 2-1.2.2-3.7.7-5.6 1-3.5.5-6 1-10.2 2.1-1.3.3-3.2.7-4.3.9-1.1.2-3.3.8-5 1.5-1.6.6-3.2 1.1-3.5 1.1-2.1-.3-25.6 8.6-36 13.6-8.3 4-23.2 12.3-24 13.4-.3.3-1.5.9-2.7 1.3-1.3.4-2.3 1.2-2.3 1.7s-.4.9-1 .9c-1.4 0-19.6 13.9-26.5 20.4-3.3 3-6.3 5.5-6.7 5.6-2 .1-.2 2.8 6.5 10.3 3.9 4.5 8.2 9.3 9.4 10.6l2.3 2.5 4.6-4.4c7.4-7.1 7.6-7.3 13.9-12.1 18.6-14.3 43.2-27.4 63.5-33.9 9.3-2.9 16.4-4.9 19.2-5.4 1.5-.3 3.1-.7 3.5-.9.5-.3 3.1-.7 6-1.1 2.8-.3 5.7-.8 6.5-1.1.7-.3 4.3-.7 8-.9 3.6-.2 7-.6 7.5-.9 1.7-1 29.1-.4 38.8.8 13.6 1.8 17.5 2.4 21 3.2 1.7.4 3.5.8 4 .9.6.1 1.2.3 1.5.4.3.1 1.3.3 2.3.5 4.5.9 25.6 7.9 31.6 10.6 25.8 11.5 47.6 26.4 66.6 45.4 10.3 10.4 26.5 30.1 26.5 32.3 0 .6.3 1.2.8 1.4 1.1.5 10.5 16.6 14.2 24.3 4.4 9.4 9 20.5 8.4 20.5-.3 0 .1 1 .7 2.2 1.6 3 6.6 20.6 7.4 25.9.4 2.4.8 4.6 1 4.9.2.3.6 3.4 1 6.9.4 3.4.9 7.2 1.2 8.4 1 3.8 1.2 41.7.2 42.3-.5.3-.7.9-.4 1.4 1.5 2.5-4.5 32.1-9.7 47.5-20.3 59.7-66.1 107.3-125.8 130.6-9.8 3.8-32 10-36 10.1-.8 0-3.1.4-5 .8-12.7 3.1-56 3.3-66.1.4-.9-.3-3.3-.7-5.3-.9-7.7-1-22.3-4.8-31.1-8.1-1.1-.4-2.9-.9-3.9-1.1-1.1-.2-2.4-.7-3-1.2-.6-.5-2.9-1.4-5.1-2.1-8.1-2.5-38.1-19.2-44.1-24.5-.6-.5-2.2-1.7-3.4-2.5-3.3-2.2-8.7-6.8-15.7-13.3-5.9-5.4-8.3-6.8-8.3-4.9 0 .5-3.6 5.7-8 11.5l-8 10.6 2.4 2.3c8.8 8.6 24.7 20.8 37.8 29 13.4 8.4 33.8 18.3 45.2 22 3.4 1 7 2.3 8.1 2.8 4.3 1.8 23.1 6.4 36 8.6 2.2.4 4.3.8 4.8.9.4.2 3 .3 5.8.4 2.9 0 4.8.5 4.4 1-.7 1.2 46.5 1.3 48 .2.5-.5 3.6-1.1 6.8-1.5 3.2-.3 6.2-.8 6.5-1 .4-.2 2.7-.7 5.2-1 5.9-.8 7.2-1.1 15-3.1l8-2c5-1 30-10.3 34.4-12.8 1.2-.6 2.3-1.2 2.6-1.2 1-.2 12.5-6 13-6.6.3-.3 3-1.9 6-3.5s6.1-3.5 6.8-4.2c.8-.6 2.3-1.7 3.5-2.4 2.3-1.2 15.4-10.5 17.3-12.3.6-.5 3.3-2.8 6-5 8.2-6.7 25.1-24.2 32.8-33.9 18.4-23.2 33.5-51.6 41.1-77.1 1.4-5 2.9-9.7 3.2-10.5.3-.8.7-2.1.9-2.9.1-.8 1-4.6 1.8-8.5 2.6-11.8 3.3-16.7 3.8-24.8.2-3.5.7-4.8 1.8-4.8 1.3 0 1.3-.1 0-1-1.1-.7-1.1-1-.2-1 1 0 1.3-4.5 1.1-22-.1-13.1-.5-22-1.1-22-.5 0-.6.9-.3 2s.2 2-.2 2c-.5 0-1-1.7-1-3.8-.2-5.5-1.1-13-2.3-19.2-.6-3-1.3-6.4-1.5-7.5-.4-2.3-1.3-5.8-1.5-6.5-.1-.3-.3-1-.4-1.5-.3-1.4-1.7-6.7-2.2-8.5-.3-.8-.5-1.5-.4-1.5l-2-6c-1.2-3.3-2.3-6.5-2.4-7-.2-.6-.7-1.9-1.1-3-13.6-34.3-31.7-62.1-56-86-12.3-12.1-13.5-13.1-25.5-22.1-15.4-11.6-33.8-22.2-50-28.8-3.6-1.5-7.4-3.1-8.5-3.6-6.9-3.2-34.6-10.8-42-11.6-2.2-.3-4.7-.7-5.4-1-.8-.3-3.5-.7-6-1-2.6-.2-6.2-.7-8.1-1-3.5-.6-40.8-1.3-41.3-.8z"/></svg>